<svg id="svg" xmlns="http://www.w3.org/2000/svg" xmlns:xlink="http://www.w3.org/1999/xlink" width="400" height="400" viewBox="0, 0, 400,400">
    <g id="svgg">
        <path id="path0" d="M173.000 1.562 C 38.545 22.612,-37.076 165.024,21.539 286.801 C 63.972 374.961,163.722 419.544,258.004 392.489 C 314.689 376.222,363.272 333.246,386.298 279.000 C 391.324 267.162,398.000 245.714,398.000 241.409 L 398.000 238.978 356.384 239.239 L 314.768 239.500 311.096 248.022 C 281.148 317.521,191.616 341.114,130.861 295.517 C 65.686 246.602,67.265 149.002,133.988 102.144 C 194.788 59.447,283.493 84.525,311.221 152.250 L 314.393 160.000 356.197 160.000 C 396.010 160.000,398.000 159.913,398.000 158.173 C 398.000 141.617,377.092 97.747,357.611 73.429 C 314.812 20.002,240.357 -8.983,173.000 1.562 " stroke="none" fill="#000000" fill-rule="evenodd"></path>
    </g>
</svg>